<svg version="1.1" viewBox="0.0 0.0 960.0 720.0" fill="none" stroke="none" stroke-linecap="square" stroke-miterlimit="10" xmlns:xlink="http://www.w3.org/1999/xlink" xmlns="http://www.w3.org/2000/svg"><clipPath id="p.0"><path d="m0 0l960.0 0l0 720.0l-960.0 0l0 -720.0z" clip-rule="nonzero"/></clipPath><g clip-path="url(#p.0)"><path fill="#000000" fill-opacity="0.0" d="m0 0l960.0 0l0 720.0l-960.0 0z" fill-rule="evenodd"/><g filter="url(#shadowFilter-p.1)"><use xlink:href="#p.1" transform="matrix(1.0 0.0 0.0 1.0 2.0 0.0)"/></g><defs><filter id="shadowFilter-p.1" filterUnits="userSpaceOnUse"><feGaussianBlur in="SourceAlpha" stdDeviation="2.5" result="blur"/><feComponentTransfer in="blur" color-interpolation-filters="sRGB"><feFuncR type="linear" slope="0" intercept="0.8"/><feFuncG type="linear" slope="0" intercept="0.8"/><feFuncB type="linear" slope="0" intercept="0.8"/><feFuncA type="linear" slope="0.66" intercept="0"/></feComponentTransfer></filter></defs><g id="p.1"><path fill="#000000" fill-opacity="0.0" d="m121.55643 177.39108l183.65353 0l0 58.173218l-183.65353 0z" fill-rule="evenodd"/><path fill="#38761d" d="m151.44981 200.04858q2.8125 0 4.421875 1.65625q1.625 1.640625 1.625 5.515625l-10.015625 0l-0.0625 -0.609375l5.40625 0q0.03125 -1.5625 -0.140625 -2.890625q-0.15625 -1.328125 -0.515625 -2.125q-0.34375 -0.796875 -0.953125 -0.796875q-0.859375 0 -1.40625 1.359375q-0.53125 1.359375 -0.703125 4.65625l0.140625 0.25q-0.046875 0.3125 -0.046875 0.640625q0 0.3125 0 0.671875q0 2.234375 0.5625 3.484375q0.5625 1.25 1.40625 1.734375q0.859375 0.46875 1.71875 0.46875q0.453125 0 1.078125 -0.125q0.625 -0.125 1.359375 -0.578125q0.734375 -0.46875 1.4375 -1.4375l0.546875 0.203125q-0.390625 1.265625 -1.25 2.53125q-0.84375 1.265625 -2.1875 2.09375q-1.34375 0.8125 -3.25 0.8125q-2.046875 0 -3.734375 -0.828125q-1.6875 -0.84375 -2.6875 -2.765625q-0.984375 -1.921875 -0.984375 -5.140625q0 -3.078125 1.09375 -5.015625q1.09375 -1.9375 2.953125 -2.84375q1.875 -0.921875 4.1875 -0.921875zm15.002289 -7.96875l0 22.0625q0 1.34375 0.390625 1.828125q0.40625 0.46875 1.40625 0.46875l0 0.671875q-0.640625 -0.03125 -1.921875 -0.078125q-1.28125 -0.046875 -2.625 -0.046875q-1.34375 0 -2.71875 0.046875q-1.375 0.046875 -2.078125 0.078125l0 -0.671875q0.984375 0 1.390625 -0.46875q0.40625 -0.484375 0.40625 -1.828125l0 -18.21875q0 -1.4375 -0.390625 -2.125q-0.390625 -0.6875 -1.40625 -0.6875l0 -0.671875q1.015625 0.09375 1.984375 0.09375q1.59375 0 2.984375 -0.109375q1.390625 -0.109375 2.578125 -0.34375zm10.625 8.421875l0 0.640625q-1.15625 0.328125 -2.34375 1.125q-1.171875 0.796875 -2.390625 2.015625l-1.125 1.109375l0.234375 -0.40625l5.140625 9.78125q0.265625 0.484375 0.546875 0.953125q0.296875 0.46875 0.734375 0.71875l0 0.671875q-0.53125 -0.03125 -1.640625 -0.078125q-1.109375 -0.046875 -2.21875 -0.046875q-1.28125 0 -2.578125 0.046875q-1.296875 0.046875 -1.9375 0.078125l0 -0.671875q0.640625 0 0.84375 -0.28125q0.203125 -0.296875 -0.046875 -0.8125l-2.8125 -5.953125q-0.234375 -0.4375 -0.515625 -0.5625q-0.28125 -0.140625 -0.671875 -0.140625l0 -0.609375q0.453125 0 0.828125 -0.078125q0.390625 -0.078125 0.703125 -0.390625l2.46875 -2.3125q1.125 -1.015625 1.140625 -1.921875q0.015625 -0.921875 -0.703125 -1.53125q-0.71875 -0.609375 -1.875 -0.703125l0 -0.640625q0.921875 0.03125 1.984375 0.0625q1.078125 0.03125 1.859375 0.03125q0.671875 0 1.53125 -0.015625q0.859375 -0.015625 1.640625 -0.03125q0.796875 -0.015625 1.203125 -0.046875zm8.223038 -8.421875l0 22.0625q0 1.34375 0.390625 1.828125q0.40625 0.46875 1.40625 0.46875l0 0.671875q-0.640625 -0.03125 -1.921875 -0.078125q-1.28125 -0.046875 -2.625 -0.046875q-1.34375 0 -2.71875 0.046875q-1.375 0.046875 -2.078125 0.078125l0 -0.671875q0.984375 0 1.390625 -0.46875q0.40625 -0.484375 0.40625 -1.828125l0 -18.21875q0 -1.4375 -0.390625 -2.125q-0.390625 -0.6875 -1.40625 -0.6875l0 -0.671875q1.015625 0.09375 1.984375 0.09375q1.59375 0 2.984375 -0.109375q1.390625 -0.109375 2.578125 -0.34375zm10.625 8.421875l0 0.640625q-1.15625 0.328125 -2.34375 1.125q-1.171875 0.796875 -2.390625 2.015625l-1.125 1.109375l0.234375 -0.40625l5.140625 9.78125q0.265625 0.484375 0.546875 0.953125q0.296875 0.46875 0.734375 0.71875l0 0.671875q-0.53125 -0.03125 -1.640625 -0.078125q-1.109375 -0.046875 -2.21875 -0.046875q-1.28125 0 -2.578125 0.046875q-1.296875 0.046875 -1.9375 0.078125l0 -0.671875q0.640625 0 0.84375 -0.28125q0.203125 -0.296875 -0.046875 -0.8125l-2.8125 -5.953125q-0.234375 -0.4375 -0.515625 -0.5625q-0.28125 -0.140625 -0.671875 -0.140625l0 -0.609375q0.453125 0 0.828125 -0.078125q0.390625 -0.078125 0.703125 -0.390625l2.46875 -2.3125q1.125 -1.015625 1.140625 -1.921875q0.015625 -0.921875 -0.703125 -1.53125q-0.71875 -0.609375 -1.875 -0.703125l0 -0.640625q0.921875 0.03125 1.984375 0.0625q1.078125 0.03125 1.859375 0.03125q0.671875 0 1.53125 -0.015625q0.859375 -0.015625 1.640625 -0.03125q0.796875 -0.015625 1.203125 -0.046875zm5.894287 -8.421875q1.65625 0 2.5625 0.703125q0.921875 0.6875 0.921875 2.0625q0 1.375 -0.921875 2.0625q-0.90625 0.6875 -2.5625 0.6875q-1.671875 0 -2.578125 -0.6875q-0.90625 -0.6875 -0.90625 -2.0625q0 -1.375 0.90625 -2.0625q0.90625 -0.703125 2.578125 -0.703125zm3.0625 8.078125l0 13.984375q0 1.34375 0.40625 1.828125q0.40625 0.46875 1.390625 0.46875l0 0.671875q-0.640625 -0.03125 -1.921875 -0.078125q-1.28125 -0.046875 -2.625 -0.046875q-1.34375 0 -2.71875 0.046875q-1.375 0.046875 -2.078125 0.078125l0 -0.671875q0.984375 0 1.390625 -0.46875q0.40625 -0.484375 0.40625 -1.828125l0 -10.15625q0 -1.4375 -0.390625 -2.125q-0.375 -0.6875 -1.40625 -0.6875l0 -0.671875q1.03125 0.09375 1.984375 0.09375q1.59375 0 2.984375 -0.109375q1.40625 -0.109375 2.578125 -0.328125zm10.403778 -4.84375l0 5.1875l3.140625 0l0 0.640625l-3.140625 0l0 13.28125q0 0.609375 0.21875 0.890625q0.234375 0.265625 0.75 0.265625q0.34375 0 0.828125 -0.203125q0.484375 -0.21875 0.890625 -0.734375l0.484375 0.390625q-0.671875 1.15625 -1.78125 1.84375q-1.09375 0.6875 -2.765625 0.6875q-1.0625 0 -1.90625 -0.28125q-0.84375 -0.265625 -1.390625 -0.8125q-0.703125 -0.703125 -0.90625 -1.734375q-0.1875 -1.046875 -0.1875 -2.71875l0 -10.875l-2.421875 0l0 -0.640625l2.421875 0l0 -3.78125q1.703125 0 3.09375 -0.328125q1.390625 -0.34375 2.671875 -1.078125zm20.668777 4.84375l0 13.46875q0 1.4375 0.40625 2.125q0.40625 0.6875 1.390625 0.6875l0 0.671875q-0.984375 -0.09375 -1.984375 -0.09375q-1.59375 0 -2.984375 0.09375q-1.375 0.09375 -2.578125 0.359375l0 -2.3125q-0.765625 1.28125 -2.0625 1.84375q-1.296875 0.5625 -3.03125 0.5625q-1.46875 0 -2.328125 -0.375q-0.84375 -0.359375 -1.28125 -0.90625q-0.484375 -0.578125 -0.71875 -1.53125q-0.21875 -0.96875 -0.21875 -2.59375l0 -8.171875q0 -1.4375 -0.390625 -2.125q-0.375 -0.6875 -1.390625 -0.6875l0 -0.671875q1.015625 0.09375 1.984375 0.09375q1.59375 0 2.984375 -0.109375q1.390625 -0.109375 2.578125 -0.328125l0 13.71875q0 0.671875 0.15625 1.125q0.15625 0.453125 0.5 0.671875q0.359375 0.21875 0.90625 0.21875q0.609375 0 1.125 -0.28125q0.515625 -0.296875 0.84375 -0.8125q0.34375 -0.53125 0.34375 -1.203125l0 -9.609375q0 -1.4375 -0.390625 -2.125q-0.375 -0.6875 -1.40625 -0.6875l0 -0.671875q1.03125 0.09375 1.984375 0.09375q1.59375 0 2.984375 -0.109375q1.40625 -0.109375 2.578125 -0.328125zm9.450912 22.96875q-2.1875 0 -3.765625 -0.34375q-1.578125 -0.328125 -2.453125 -0.953125q-0.859375 -0.625 -0.859375 -1.515625q0 -0.90625 0.890625 -1.6875q0.90625 -0.78125 2.859375 -1.234375l0.3125 0.515625q-0.515625 0.609375 -0.6875 1.109375q-0.171875 0.5 -0.171875 0.9375q0 1.25 1.125 1.9375q1.140625 0.6875 3.1875 0.6875q1.4375 0 2.40625 -0.40625q0.984375 -0.390625 1.484375 -1.09375q0.5 -0.703125 0.5 -1.59375q0 -0.90625 -0.671875 -1.546875q-0.671875 -0.640625 -2.71875 -0.640625l-1.734375 0q-1.46875 0 -2.46875 -0.375q-0.984375 -0.390625 -1.5 -1.078125q-0.515625 -0.6875 -0.515625 -1.609375q0 -1.515625 1.1875 -2.53125q1.1875 -1.03125 3.046875 -1.828125l0.28125 0.265625q-0.3125 0.21875 -0.671875 0.546875q-0.34375 0.3125 -0.34375 0.921875q0 1.015625 1.140625 1.015625l3.109375 0q2.078125 0 3.625 0.453125q1.5625 0.453125 2.4375 1.46875q0.875 1.0 0.875 2.625q0 1.59375 -1.046875 2.953125q-1.03125 1.375 -3.203125 2.1875q-2.171875 0.8125 -5.65625 0.8125zm0.4375 -12.828125q-1.984375 0 -3.53125 -0.546875q-1.546875 -0.546875 -2.453125 -1.671875q-0.890625 -1.140625 -0.890625 -2.90625q0 -1.765625 0.890625 -2.890625q0.90625 -1.140625 2.453125 -1.6875q1.546875 -0.546875 3.53125 -0.546875q1.984375 0 3.53125 0.546875q1.5625 0.546875 2.453125 1.6875q0.90625 1.125 0.90625 2.890625q0 1.765625 -0.90625 2.90625q-0.890625 1.125 -2.453125 1.671875q-1.546875 0.546875 -3.53125 0.546875zm0 -0.578125q0.609375 0 0.953125 -0.984375q0.359375 -1.0 0.359375 -3.5625q0 -2.5625 -0.359375 -3.546875q-0.34375 -1.0 -0.953125 -1.0q-0.609375 0 -0.96875 1.0q-0.34375 0.984375 -0.34375 3.546875q0 2.5625 0.34375 3.5625q0.359375 0.984375 0.96875 0.984375zm5.21875 -6.84375l-0.671875 -0.234375q0.515625 -1.34375 1.578125 -2.15625q1.078125 -0.8125 2.359375 -0.8125q1.125 0 1.65625 0.609375q0.546875 0.609375 0.546875 1.5q0 0.921875 -0.5 1.4375q-0.484375 0.515625 -1.1875 0.515625q-0.609375 0 -1.109375 -0.40625q-0.5 -0.421875 -0.5625 -1.25q-0.0625 -0.84375 0.609375 -2.125l0.125 0.234375q-1.109375 0.40625 -1.75 1.015625q-0.640625 0.609375 -1.09375 1.671875zm14.084412 -2.828125q2.5 0 4.328125 0.859375q1.84375 0.84375 2.859375 2.765625q1.03125 1.921875 1.03125 5.15625q0 3.21875 -1.03125 5.140625q-1.015625 1.921875 -2.859375 2.765625q-1.828125 0.828125 -4.328125 0.828125q-2.46875 0 -4.328125 -0.828125q-1.84375 -0.84375 -2.875 -2.765625q-1.03125 -1.921875 -1.03125 -5.140625q0 -3.234375 1.03125 -5.15625q1.03125 -1.921875 2.875 -2.765625q1.859375 -0.859375 4.328125 -0.859375zm0 0.640625q-0.96875 0 -1.609375 1.921875q-0.640625 1.921875 -0.640625 6.21875q0 4.28125 0.640625 6.1875q0.640625 1.90625 1.609375 1.90625q0.953125 0 1.59375 -1.90625q0.640625 -1.90625 0.640625 -6.1875q0 -4.296875 -0.640625 -6.21875q-0.640625 -1.921875 -1.59375 -1.921875zm17.01828 -8.609375l0 22.0625q0 1.34375 0.390625 1.828125q0.40625 0.46875 1.40625 0.46875l0 0.671875q-0.640625 -0.03125 -1.921875 -0.078125q-1.28125 -0.046875 -2.625 -0.046875q-1.34375 0 -2.71875 0.046875q-1.375 0.046875 -2.078125 0.078125l0 -0.671875q0.984375 0 1.390625 -0.46875q0.40625 -0.484375 0.40625 -1.828125l0 -18.21875q0 -1.4375 -0.390625 -2.125q-0.390625 -0.6875 -1.40625 -0.6875l0 -0.671875q1.015625 0.09375 1.984375 0.09375q1.59375 0 2.984375 -0.109375q1.390625 -0.109375 2.578125 -0.34375z" fill-rule="nonzero"/></g></g></svg>