<?xml version="1.0" encoding="utf-8"?>
<!-- Generator: Adobe Illustrator 16.0.0, SVG Export Plug-In . SVG Version: 6.00 Build 0)  -->
<svg version="1.2" baseProfile="tiny" id="Layer_1" xmlns="http://www.w3.org/2000/svg" xmlns:xlink="http://www.w3.org/1999/xlink"
	 x="0px" y="0px" width="400px" height="400px" viewBox="0 0 400 400" xml:space="preserve">
<g>
	<path d="M263.647,233.691c0,11.62-1.344,21.68-4.029,30.176c-2.688,8.496-6.396,15.527-11.132,21.094
		c-4.738,5.566-10.378,9.716-16.919,12.451c-6.544,2.732-13.623,4.102-21.24,4.102c-4.688,0-8.693-0.49-12.012-1.465
		c-3.321-0.978-6.006-2.197-8.057-3.662s-3.566-3.076-4.541-4.834c-0.978-1.758-1.563-3.369-1.758-4.834
		c0-3.614,1.167-6.643,3.506-9.082c2.337-2.442,5.21-3.662,8.62-3.662c3.408,0,6.354,0.756,8.837,2.271
		c2.483,1.513,5.285,3.882,8.402,7.104c4.479,4.197,8.423,6.299,11.833,6.299c3.507,0,6.185-1.197,8.034-3.584
		c1.85-2.393,3.213-5.491,4.09-9.295c0.877-3.807,1.364-8.027,1.463-12.66c0.096-4.637,0.146-9.246,0.146-13.831v-98.794
		c0-6.049-0.341-11.293-1.023-15.733c-0.682-4.44-1.852-8.075-3.507-10.904c-1.656-2.829-3.799-4.928-6.429-6.294
		c-2.63-1.364-5.941-2.048-9.934-2.048c-5.648,0-11.371,1.561-17.166,4.683c-5.795,3.122-11.616,7.901-17.459,14.337v70.666
		c0,5.269,0.22,9.512,0.659,12.73c0.439,3.218,1.439,5.705,3.003,7.461c1.561,1.756,3.783,2.95,6.665,3.584
		c2.879,0.635,6.761,0.95,11.646,0.95v5.56h-66.65v-5.566c4.197,0,7.617-0.316,10.254-0.952c2.637-0.634,4.688-1.879,6.152-3.735
		c1.465-1.854,2.465-4.395,3.003-7.617c0.535-3.223,0.806-7.372,0.806-12.451v-49.951c0-8.006-0.099-14.305-0.293-18.896
		c-0.197-4.589-0.465-8.104-0.806-10.547c-0.344-2.44-0.783-4.102-1.318-4.98c-0.538-0.879-1.197-1.611-1.978-2.197
		c-3.223-2.831-8.496-2.733-15.82,0.293l-2.344-5.273l40.723-16.113h6.299v27.979c15.916-18.651,30.956-27.979,45.117-27.979
		c6.541,0,12.06,1.197,16.553,3.589c4.49,2.394,8.104,5.786,10.84,10.181c2.732,4.395,4.709,9.668,5.932,15.82
		c1.221,6.152,1.832,12.989,1.832,20.508V233.691z"/>
</g>
</svg>
